HIERARCHY
ROOT joint_Root
{
	OFFSET 0.0 0.0 0.0
	CHANNELS 6 Xposition Yposition Zposition Zrotation Xrotation Yrotation 
	JOINT Hips
	{
		OFFSET 4.5925 91.4895 -427.239
		CHANNELS 6 Xposition Yposition Zposition Zrotation Xrotation Yrotation 
		JOINT Spine
		{
			OFFSET 15.7357 0.0 0.0
			CHANNELS 6 Xposition Yposition Zposition Zrotation Xrotation Yrotation 
			JOINT Chest
			{
				OFFSET 8.98455 -0.406207 0.0
				CHANNELS 6 Xposition Yposition Zposition Zrotation Xrotation Yrotation 
				JOINT Neck
				{
					OFFSET 16.3773 0.0 0.0
					CHANNELS 6 Xposition Yposition Zposition Zrotation Xrotation Yrotation 
					JOINT Head
					{
						OFFSET 6.45672 0.0 0.0
						CHANNELS 6 Xposition Yposition Zposition Zrotation Xrotation Yrotation 
						End Site
						{
							OFFSET 0.0 0.0 0.0
						}
					}
				}
				JOINT Shoulder_L
				{
					OFFSET 12.9942 -0.242716 4.98039
					CHANNELS 6 Xposition Yposition Zposition Zrotation Xrotation Yrotation 
					JOINT UpperArm_L
					{
						OFFSET 5.34809 0.0 0.0
						CHANNELS 6 Xposition Yposition Zposition Zrotation Xrotation Yrotation 
						JOINT LowerArm_L
						{
							OFFSET 24.3286 1.87007e-05 0.0
							CHANNELS 6 Xposition Yposition Zposition Zrotation Xrotation Yrotation 
							JOINT Hand_L
							{
								OFFSET 22.2916 0.0 0.0
								CHANNELS 6 Xposition Yposition Zposition Zrotation Xrotation Yrotation 
								End Site
								{
									OFFSET 0.0 0.0 0.0
								}
							}
						}
					}
				}
				JOINT Shoulder_R
				{
					OFFSET 12.9945 -0.242716 -4.98039
					CHANNELS 6 Xposition Yposition Zposition Zrotation Xrotation Yrotation 
					JOINT UpperArm_R
					{
						OFFSET -5.34813 0.0 0.0
						CHANNELS 6 Xposition Yposition Zposition Zrotation Xrotation Yrotation 
						JOINT LowerArm_R
						{
							OFFSET -24.3289 0.000322201 0.0
							CHANNELS 6 Xposition Yposition Zposition Zrotation Xrotation Yrotation 
							JOINT Hand_R
							{
								OFFSET -22.2915 -0.000108084 0.0
								CHANNELS 6 Xposition Yposition Zposition Zrotation Xrotation Yrotation 
								End Site
								{
									OFFSET 0.0 0.0 0.0
								}
							}
						}
					}
				}
			}
		}
		JOINT UpperLeg_L
		{
			OFFSET -2.19248 -6.46944 0.0
			CHANNELS 6 Xposition Yposition Zposition Zrotation Xrotation Yrotation 
			JOINT LowerLeg_L
			{
				OFFSET 39.0811 0.0 -1.23785e-05
				CHANNELS 6 Xposition Yposition Zposition Zrotation Xrotation Yrotation 
				JOINT Foot_L
				{
					OFFSET 40.9854 0.0 -1.26872e-05
					CHANNELS 6 Xposition Yposition Zposition Zrotation Xrotation Yrotation 
					JOINT Toes_L
					{
						OFFSET 11.7543 0.0 0.0
						CHANNELS 6 Xposition Yposition Zposition Zrotation Xrotation Yrotation 
						End Site
						{
							OFFSET 0.0 0.0 0.0
						}
					}
				}
			}
		}
		JOINT UpperLeg_R
		{
			OFFSET -2.19251 6.46944 0.0
			CHANNELS 6 Xposition Yposition Zposition Zrotation Xrotation Yrotation 
			JOINT LowerLeg_R
			{
				OFFSET -39.0811 -0.00228153 -0.0401928
				CHANNELS 6 Xposition Yposition Zposition Zrotation Xrotation Yrotation 
				JOINT Foot_R
				{
					OFFSET -40.9854 0.0 0.0
					CHANNELS 6 Xposition Yposition Zposition Zrotation Xrotation Yrotation 
					JOINT Toes_R
					{
						OFFSET -11.7543 0.0 0.0
						CHANNELS 6 Xposition Yposition Zposition Zrotation Xrotation Yrotation 
						End Site
						{
							OFFSET 0.0 0.0 0.0
						}
					}
				}
			}
		}
	}
}
MOTION
Frames:	8
Frame Time:	0.0333333
0.000000 0.000000 0.000000 0.000000 0.000000 -0.000000 -1.129500 90.068700 -3.631430 88.702200 -2.446650 11.840900 15.735700 0.000005 -0.000001 88.180700 76.743600 -89.258400 8.984550 -0.406207 -0.000000 18.727000 -0.927651 -2.007570 16.377300 -0.000001 -0.000001 5.479220 -4.362810 -1.147330 6.456720 -0.000001 -0.000000 -9.008510 -2.895370 -7.886070 12.994200 -0.242716 4.980390 -91.414600 6.930790 -78.434500 5.348090 -0.000007 -0.000001 -49.625400 36.787800 -32.486500 24.328600 0.000019 0.000005 6.180080 17.721500 -19.582300 22.291600 -0.000001 0.000005 9.292240 5.222070 2.159600 12.994500 -0.242716 -4.980390 89.224700 4.849810 -80.906600 -5.348130 -0.000001 -0.000004 -75.018900 -22.683600 -67.018800 -24.328900 0.000322 -0.000009 21.207900 -4.737950 -102.017000 -22.291500 -0.000108 -0.000004 41.969700 5.276780 0.713951 -2.192480 -6.469440 -0.000000 -173.025000 -12.899100 -3.404650 39.081100 -0.000007 -0.000012 -0.237349 0.328193 35.874800 40.985400 -0.000006 -0.000013 0.041872 5.377890 -70.182700 11.754300 -0.000000 0.000003 -0.000128 -0.001267 -16.625900 -2.192510 6.469440 -0.000001 175.462000 20.647500 178.333000 -39.081100 -0.002282 -0.040193 -0.105058 0.155714 34.831100 -40.985400 0.000008 0.000006 6.421310 12.595900 -71.602700 -11.754300 -0.000006 -0.000006 -0.002187 -0.031033 -17.835000
0.000000 0.000000 0.000000 0.000000 0.000000 -0.000000 -1.141830 90.066600 -3.553850 88.675700 -2.630080 11.814200 15.735700 0.000005 -0.000001 88.068000 76.815600 -89.142500 8.984550 -0.406207 -0.000000 18.581200 -0.972631 -1.995060 16.377300 -0.000001 -0.000001 5.490640 -4.344010 -1.324760 6.456720 -0.000001 -0.000000 -9.064000 -2.831100 -7.853150 12.994200 -0.242716 4.980390 -91.397500 6.867190 -78.468400 5.348090 -0.000007 -0.000001 -49.701800 36.835700 -32.421100 24.328600 0.000019 0.000005 6.193100 17.689500 -19.652300 22.291600 -0.000001 0.000005 9.254200 5.223460 2.123960 12.994500 -0.242716 -4.980390 89.231600 4.830410 -80.950400 -5.348130 -0.000001 -0.000004 -75.597700 -22.949900 -66.885100 -24.328900 0.000322 -0.000009 21.257600 -4.628460 -101.719000 -22.291500 -0.000108 -0.000004 42.302800 5.267670 0.960799 -2.192480 -6.469440 -0.000000 -172.971000 -12.955900 -3.340870 39.081100 -0.000007 -0.000012 -0.238390 0.329618 35.876000 40.985400 -0.000006 -0.000013 -0.010757 5.263670 -70.254000 11.754300 -0.000000 0.000003 -0.000129 -0.001282 -16.626500 -2.192510 6.469440 -0.000001 175.514000 20.557000 178.351000 -39.081100 -0.002282 -0.040193 -0.101587 0.150816 34.815000 -40.985400 0.000008 0.000006 6.466150 12.673600 -71.651000 -11.754300 -0.000006 -0.000006 -0.002001 -0.028723 -17.741100
0.000000 0.000000 0.000000 0.000000 0.000000 -0.000000 -1.149780 90.061100 -3.484680 88.645000 -2.866000 11.760600 15.735700 0.000005 -0.000001 87.980900 76.894600 -89.051700 8.984550 -0.406207 -0.000000 18.421700 -1.004870 -1.983490 16.377300 -0.000001 -0.000001 5.509310 -4.304930 -1.373630 6.456720 -0.000001 -0.000000 -9.130780 -2.738110 -7.981650 12.994200 -0.242716 4.980390 -91.381800 6.823450 -78.523900 5.348090 -0.000007 -0.000001 -49.660900 36.914300 -32.422000 24.328600 0.000019 0.000005 6.222330 17.662200 -19.765900 22.291600 -0.000001 0.000005 9.263270 5.223870 2.113500 12.994500 -0.242716 -4.980390 89.231900 4.798560 -80.895000 -5.348130 -0.000001 -0.000004 -75.383300 -22.884700 -66.806600 -24.328900 0.000322 -0.000009 21.157100 -4.495540 -101.450000 -22.291500 -0.000108 -0.000004 42.639500 5.259720 1.174150 -2.192480 -6.469440 -0.000000 -172.887000 -13.127600 -3.324500 39.081100 -0.000007 -0.000012 -0.246473 0.340503 35.899400 40.985400 -0.000006 -0.000013 -0.050232 5.192930 -70.315700 11.754300 -0.000000 0.000003 -0.000123 -0.001228 -16.624400 -2.192510 6.469440 -0.000001 175.604000 20.359500 178.315000 -39.081100 -0.002282 -0.040193 -0.100064 0.148574 34.824400 -40.985400 0.000008 0.000006 6.562240 12.693400 -71.718400 -11.754300 -0.000006 -0.000006 -0.002170 -0.030825 -17.826500
0.000000 0.000000 0.000000 0.000000 0.000000 -0.000000 -1.153600 90.060700 -3.420910 88.633700 -3.187460 11.703100 15.735700 0.000005 -0.000001 87.907100 76.971300 -88.986600 8.984550 -0.406207 -0.000000 18.267000 -1.032100 -1.997670 16.377300 -0.000001 -0.000001 5.568340 -4.275740 -1.414730 6.456720 -0.000001 -0.000000 -9.201550 -2.639600 -8.069150 12.994200 -0.242716 4.980390 -91.371600 6.779110 -78.533700 5.348090 -0.000007 -0.000001 -49.550000 36.967100 -32.555900 24.328600 0.000019 0.000005 6.190700 17.565500 -19.769200 22.291600 -0.000001 0.000005 9.254620 5.223590 2.120590 12.994500 -0.242716 -4.980390 89.239100 4.750180 -80.888500 -5.348130 -0.000001 -0.000004 -74.425500 -22.531800 -66.844400 -24.328900 0.000322 -0.000009 21.057900 -4.387760 -101.239000 -22.291500 -0.000108 -0.000004 42.726300 5.251040 1.405140 -2.192480 -6.469440 -0.000000 -172.835000 -13.320300 -3.264500 39.081100 -0.000007 -0.000012 -0.240617 0.332574 35.886200 40.985400 -0.000006 -0.000013 -0.092456 5.090920 -70.386300 11.754300 -0.000000 0.000003 -0.000130 -0.001288 -16.626700 -2.192510 6.469440 -0.000001 175.687000 20.149100 178.256000 -39.081100 -0.002282 -0.040193 -0.098858 0.146820 34.828100 -40.985400 0.000008 0.000006 6.672440 12.727200 -71.767400 -11.754300 -0.000006 -0.000006 -0.002232 -0.031587 -17.857600
0.000000 0.000000 0.000000 0.000000 0.000000 -0.000000 -1.149760 90.057300 -3.366770 88.634300 -3.523940 11.736400 15.735700 0.000005 -0.000001 87.826300 77.021200 -88.916500 8.984550 -0.406207 -0.000000 18.165700 -1.064680 -2.014910 16.377300 -0.000001 -0.000001 5.669950 -4.295390 -1.388860 6.456720 -0.000001 -0.000000 -9.274200 -2.598110 -8.158320 12.994200 -0.242716 4.980390 -91.354000 6.731420 -78.599200 5.348090 -0.000007 -0.000001 -49.584300 36.865900 -32.596000 24.328600 0.000019 0.000005 6.212650 17.641300 -19.758100 22.291600 -0.000001 0.000005 9.333730 5.223000 2.135820 12.994500 -0.242716 -4.980390 89.261700 4.621890 -80.914500 -5.348130 -0.000001 -0.000004 -72.882800 -21.969300 -66.962700 -24.328900 0.000322 -0.000009 21.215500 -4.390300 -101.156000 -22.291500 -0.000108 -0.000004 42.543400 5.251060 1.404670 -2.192480 -6.469440 -0.000000 -172.762000 -13.530200 -3.110430 39.081100 -0.000007 -0.000012 -0.241520 0.333955 35.875300 40.985400 -0.000006 -0.000013 -0.133254 4.998180 -70.457100 11.754300 -0.000000 0.000003 -0.000126 -0.001255 -16.625400 -2.192510 6.469440 -0.000001 175.709000 19.921800 178.289000 -39.081100 -0.002282 -0.040193 -0.098608 0.146473 34.825800 -40.985400 0.000008 0.000006 6.608610 12.855700 -71.765600 -11.754300 -0.000006 -0.000006 -0.002228 -0.031538 -17.855600
0.000000 0.000000 0.000000 0.000000 0.000000 -0.000000 -1.141320 90.052600 -3.328080 88.623600 -3.858910 11.693400 15.735700 0.000005 -0.000001 87.780200 77.086400 -88.877100 8.984550 -0.406207 -0.000000 18.034300 -1.079770 -2.026960 16.377300 -0.000001 -0.000001 5.682330 -4.353070 -1.315540 6.456720 -0.000001 -0.000000 -9.281220 -2.675350 -8.214720 12.994200 -0.242716 4.980390 -91.334700 6.680230 -78.674100 5.348090 -0.000007 -0.000001 -49.540800 36.811800 -32.742700 24.328600 0.000019 0.000005 6.208200 17.665900 -19.720400 22.291600 -0.000001 0.000005 9.357420 5.220900 2.189620 12.994500 -0.242716 -4.980390 89.274600 4.529590 -80.891400 -5.348130 -0.000001 -0.000004 -70.916900 -21.234500 -67.226200 -24.328900 0.000322 -0.000009 21.482100 -4.476550 -101.218000 -22.291500 -0.000108 -0.000004 42.268600 5.259020 1.192820 -2.192480 -6.469440 -0.000000 -172.723000 -13.668800 -3.073180 39.081100 -0.000007 -0.000012 -0.248502 0.343475 35.886000 40.985400 -0.000006 -0.000013 -0.203067 4.793890 -70.515900 11.754300 -0.000000 0.000003 -0.000122 -0.001222 -16.624200 -2.192510 6.469440 -0.000001 175.772000 19.706800 178.218000 -39.081100 -0.002282 -0.040193 -0.099575 0.147738 34.848500 -40.985400 0.000008 0.000006 6.669530 12.954200 -71.794400 -11.754300 -0.000006 -0.000006 -0.002111 -0.030098 -17.797000
0.000000 0.000000 0.000000 0.000000 0.000000 -0.000000 -1.144400 90.051400 -3.302980 88.598900 -4.109010 11.671300 15.735700 0.000005 -0.000001 87.684900 77.147800 -88.787900 8.984550 -0.406207 -0.000000 17.909800 -1.116640 -2.034420 16.377300 -0.000001 -0.000001 5.751010 -4.459270 -1.196360 6.456720 -0.000001 -0.000000 -9.300910 -2.790860 -8.217790 12.994200 -0.242716 4.980390 -91.320100 6.632660 -78.717000 5.348090 -0.000007 -0.000001 -49.441900 36.798600 -32.985500 24.328600 0.000019 0.000005 6.191240 17.671000 -19.665200 22.291600 -0.000001 0.000005 9.345520 5.220390 2.202790 12.994500 -0.242716 -4.980390 89.296400 4.407390 -80.920400 -5.348130 -0.000001 -0.000004 -68.741900 -20.494300 -67.448400 -24.328900 0.000322 -0.000009 21.758400 -4.676890 -101.546000 -22.291500 -0.000108 -0.000004 42.073900 5.259240 1.187000 -2.192480 -6.469440 -0.000000 -172.658000 -13.830800 -3.034590 39.081100 -0.000007 -0.000012 -0.248622 0.343553 35.892900 40.985400 -0.000006 -0.000013 -0.231133 4.722770 -70.554500 11.754300 -0.000000 0.000003 -0.000130 -0.001288 -16.626700 -2.192510 6.469440 -0.000001 175.843000 19.564500 178.184000 -39.081100 -0.002282 -0.040193 -0.098584 0.146322 34.847200 -40.985400 0.000008 0.000006 6.730500 13.018600 -71.808200 -11.754300 -0.000006 -0.000006 -0.002049 -0.029329 -17.765700
0.000000 0.000000 0.000000 0.000000 0.000000 -0.000000 -1.155380 90.048100 -3.277030 88.590900 -4.296190 11.659200 15.735700 0.000005 -0.000001 87.579800 77.197800 -88.684600 8.984550 -0.406207 -0.000000 17.807600 -1.158140 -2.032310 16.377300 -0.000001 -0.000001 5.848810 -4.570050 -1.053180 6.456720 -0.000001 -0.000000 -9.391870 -2.861270 -8.254650 12.994200 -0.242716 4.980390 -91.296700 6.567660 -78.805300 5.348090 -0.000007 -0.000001 -49.539200 36.672600 -33.091300 24.328600 0.000019 0.000005 6.259180 17.754500 -19.782400 22.291600 -0.000001 0.000005 9.376660 5.218350 2.254890 12.994500 -0.242716 -4.980390 89.311400 4.308030 -80.910000 -5.348130 -0.000001 -0.000004 -66.436700 -19.702900 -67.752600 -24.328900 0.000322 -0.000009 21.645400 -4.847630 -102.022000 -22.291500 -0.000108 -0.000004 41.889000 5.269700 0.906108 -2.192480 -6.469440 -0.000000 -172.602000 -13.977300 -2.994670 39.081100 -0.000007 -0.000012 -0.248539 0.343359 35.899100 40.985400 -0.000006 -0.000013 -0.245893 4.719610 -70.587900 11.754300 -0.000000 0.000003 -0.000116 -0.001164 -16.622100 -2.192510 6.469440 -0.000001 175.887000 19.414000 178.161000 -39.081100 -0.002282 -0.040193 -0.097815 0.145183 34.853400 -40.985400 0.000008 0.000006 6.725580 13.088100 -71.816000 -11.754300 -0.000006 -0.000006 -0.002189 -0.031062 -17.836200
